<?xml version="1.0" standalone="no"?>
<!DOCTYPE svg PUBLIC "-//W3C//DTD SVG 20010904//EN"
 "http://www.w3.org/TR/2001/REC-SVG-20010904/DTD/svg10.dtd">
<svg version="1.0" xmlns="http://www.w3.org/2000/svg"
 width="800.000000pt" height="800.000000pt" viewBox="0 0 800.000000 800.000000"
 preserveAspectRatio="xMidYMid meet">
<metadata>
Created by potrace 1.11, written by Peter Selinger 2001-2013
</metadata>
<g transform="translate(0.000000,800.000000) scale(0.100000,-0.100000)"
fill="#000000" stroke="none">
<path d="M5155 6184 c-45 -16 -81 -47 -101 -86 -16 -31 -19 -121 -4 -147 7
-15 2 -24 -30 -50 l-40 -32 0 71 0 72 -237 -5 c-140 -2 -253 -8 -273 -15 -65
-21 -143 -76 -178 -124 -93 -130 -108 -364 -33 -513 l27 -54 -115 -94 c-108
-88 -117 -94 -133 -80 -17 15 -18 49 -18 450 l0 434 -126 -3 -125 -3 -126
-285 c-69 -157 -141 -327 -159 -379 -48 -130 -57 -141 -49 -61 18 183 25 315
25 513 l0 217 -125 0 -125 0 0 -628 c0 -405 4 -632 10 -638 7 -7 -100 -68
-320 -182 l-331 -173 -28 20 c-72 52 -214 90 -331 90 -323 0 -532 -193 -565
-520 l-7 -67 -103 -56 -102 -56 -57 26 c-113 51 -236 14 -301 -90 -26 -43 -30
-59 -30 -120 1 -84 24 -137 82 -185 61 -50 105 -57 251 -39 23 3 52 -39 512
-744 l141 -216 -34 -45 c-48 -63 -64 -125 -49 -195 27 -130 150 -211 279 -184
77 16 124 54 178 147 10 17 60 8 650 -120 61 -13 144 -31 185 -39 41 -9 138
-29 215 -46 77 -17 214 -46 305 -65 91 -19 239 -51 330 -70 91 -20 219 -47
285 -61 66 -14 129 -27 140 -30 150 -32 327 -70 440 -94 77 -16 205 -43 285
-60 80 -18 217 -47 305 -65 88 -19 225 -48 305 -65 80 -17 208 -44 285 -61 77
-16 203 -43 280 -59 77 -16 203 -43 280 -60 187 -40 473 -101 508 -107 22 -4
27 -11 27 -33 0 -48 42 -112 90 -137 55 -29 104 -29 160 -1 127 65 116 265
-17 309 -26 8 -32 15 -28 32 8 40 43 428 96 1057 11 135 22 255 25 267 3 16
14 24 42 29 117 21 195 113 196 229 0 110 -65 200 -164 228 l-45 13 -3 847
c-2 702 0 847 11 847 8 0 30 16 49 36 66 65 72 158 16 229 -26 33 -91 65 -133
65 -37 0 -104 -30 -128 -58 -18 -20 -18 -20 -155 40 -75 33 -141 63 -145 68
-9 8 -28 82 -132 513 l-67 277 -137 0 -136 0 -63 -262 c-34 -144 -65 -264 -67
-266 -3 -3 -52 15 -109 39 l-104 44 5 70 c10 130 -42 260 -130 325 -74 54
-140 73 -252 73 -132 0 -195 -23 -278 -103 l-58 -57 -97 42 -97 43 -1 38 c0
22 -1 51 -2 66 -3 41 -64 103 -119 122 -54 19 -47 19 -98 0z m388 -343 c5 -5
-1 -35 -11 -67 -11 -32 -22 -78 -26 -101 l-6 -43 130 0 130 0 0 30 c0 32 19
82 31 78 103 -40 239 -106 239 -116 0 -32 -31 -82 -60 -97 -17 -9 -63 -19
-101 -22 l-70 -6 3 -106 3 -106 87 -5 c98 -6 130 -22 161 -81 22 -42 19 -125
-7 -164 -17 -25 -20 -26 -111 -24 l-93 2 -16 42 c-29 75 -101 119 -184 113
l-46 -3 -158 348 -157 347 36 34 36 33 91 -39 c50 -22 95 -43 99 -47z m-419
34 c27 -14 66 -25 85 -25 l36 0 158 -348 c86 -192 157 -354 157 -360 0 -7 -16
-12 -41 -12 l-42 0 6 -44 c4 -24 8 -50 9 -58 2 -10 -45 -14 -254 -16 l-258 -3
0 408 1 408 47 37 c26 20 47 37 47 38 0 0 22 -11 49 -25z m864 -110 c27 -23
50 -71 39 -82 -7 -6 -207 80 -207 88 0 11 28 17 87 18 41 1 57 -4 81 -24z
m-1268 -52 l0 -58 -115 -93 -114 -92 -8 27 c-16 55 -9 156 13 198 28 54 71 75
157 75 l67 0 0 -57z m2072 -195 c14 -95 24 -175 22 -177 -2 -2 -25 6 -51 17
-34 15 -47 26 -46 39 18 152 39 293 43 293 4 0 18 -78 32 -172z m-2072 -13 l0
-105 -79 0 c-64 0 -83 4 -102 20 l-24 20 40 33 c22 17 67 55 100 84 33 28 61
52 63 52 1 1 2 -46 2 -104z m-932 -158 l-12 -187 -39 -31 c-39 -32 -87 -116
-87 -154 0 -14 -17 -30 -60 -53 -33 -19 -60 -31 -60 -29 0 3 36 86 80 186 44
100 103 244 131 321 29 77 54 139 55 137 2 -2 -2 -87 -8 -190z m2591 137 l108
-46 -12 -51 c-7 -29 -29 -121 -49 -206 -20 -85 -39 -158 -42 -162 -3 -5 -18
-9 -33 -9 l-28 0 5 79 c8 142 -39 236 -145 290 l-56 28 47 27 c26 15 57 43 69
61 12 19 23 35 25 35 2 0 51 -21 111 -46z m406 -175 c39 -17 45 -25 53 -62 5
-23 7 -45 5 -49 -7 -13 -163 -9 -163 3 0 7 5 40 12 75 13 71 9 70 93 33z
m-2435 -70 l35 -30 -50 -97 -50 -97 -81 -3 -82 -3 -21 36 -21 36 27 23 c141
119 199 166 203 165 3 0 21 -13 40 -30z m2881 -123 c107 -47 124 -58 124 -78
0 -23 -2 -23 -107 -25 -92 -1 -108 1 -112 15 -3 10 -10 37 -16 62 -6 25 -13
53 -16 63 -3 9 -3 17 -1 17 2 0 60 -24 128 -54z m-2511 -36 l0 -70 -81 0 c-44
0 -79 3 -77 8 2 4 17 35 33 70 l28 62 49 0 48 0 0 -70z m-460 -112 c0 -7 -20
-48 -44 -91 l-43 -79 -31 40 c-28 35 -30 42 -21 75 5 19 9 39 8 44 -3 20 5 23
66 23 45 0 65 -4 65 -12z m462 -105 l3 -118 128 -3 127 -3 0 121 0 120 255 0
254 0 19 -44 c21 -46 122 -136 197 -174 37 -18 45 -30 101 -153 l61 -134 -161
-3 -161 -3 -136 -312 -136 -312 -81 -42 -80 -43 5 355 6 355 -172 -2 -173 -3
2 -212 c0 -117 -3 -213 -7 -213 -4 1 -52 58 -106 128 -53 70 -175 226 -271
347 l-173 220 101 5 101 5 60 117 60 118 87 0 87 0 3 -117z m1223 107 c-3 -5
-21 -10 -40 -10 -19 0 -37 5 -40 10 -4 6 12 10 40 10 28 0 44 -4 40 -10z m425
-5 c0 -14 -35 -171 -46 -208 -5 -16 4 -17 128 -15 l133 3 19 103 20 102 137 0
138 0 11 -57 c35 -170 28 -155 66 -151 19 2 33 0 31 -5 -1 -5 -193 -106 -426
-224 -345 -176 -427 -214 -440 -205 -48 34 -80 46 -127 45 l-52 0 -81 179
c-44 99 -81 183 -81 186 0 4 40 6 90 4 180 -7 326 68 396 203 24 46 33 55 57
55 17 0 27 -5 27 -15z m990 -11 c6 -14 8 -30 4 -35 -6 -11 -159 -89 -173 -89
-8 0 -41 113 -41 140 0 6 37 10 100 10 99 0 101 0 110 -26z m50 -82 c0 -13 68
-42 100 -42 l30 0 0 -845 0 -845 -22 0 c-34 0 -105 -38 -133 -72 l-25 -29 -75
12 -75 12 0 703 0 704 -288 0 c-158 0 -302 -4 -320 -9 -75 -22 -17 13 236 142
232 119 273 137 315 137 43 0 47 2 47 25 0 21 13 31 88 69 84 43 122 55 122
38z m-3676 -107 c72 -55 161 -70 233 -40 33 14 37 14 49 -3 7 -10 78 -101 158
-202 80 -101 144 -186 141 -188 -3 -3 -13 2 -22 10 -52 46 -172 85 -289 96
l-79 7 -3 93 -3 92 -169 0 -170 0 0 -94 0 -93 -84 -6 c-195 -14 -362 -114
-460 -275 -74 -123 -106 -274 -106 -511 l0 -123 -31 6 c-17 3 -51 6 -74 6
l-43 0 -5 248 c-5 262 -12 310 -62 419 l-24 52 217 115 c281 148 786 414 790
415 2 1 18 -10 36 -24z m2184 -397 c8 -23 9 -35 1 -45 -20 -24 -29 -14 -29 32
0 53 11 58 28 13z m369 -66 c-15 -16 -43 -57 -62 -93 -32 -59 -35 -62 -35 -33
0 17 -3 44 -6 60 -5 27 -1 31 53 61 72 40 85 41 50 5z m573 -427 l0 -255 -87
0 c-107 0 -152 12 -188 48 -48 47 -67 105 -68 201 0 126 29 201 97 242 25 15
51 19 139 19 l107 0 0 -255z m-689 184 c-6 -24 -11 -59 -11 -76 0 -45 -14 -41
-34 8 l-16 40 32 39 c18 21 34 37 36 36 1 -2 -2 -23 -7 -47z m-2591 -265 l0
-305 -97 6 c-54 3 -122 8 -150 11 l-53 5 0 122 c0 234 24 340 94 409 42 42 81
57 149 58 l57 0 0 -306z m522 270 c52 -36 94 -114 108 -199 6 -33 10 -140 10
-239 l0 -178 -122 7 c-68 4 -134 8 -148 10 l-25 2 -3 317 -2 318 69 -4 c58 -3
78 -9 113 -34z m515 -104 c179 -229 163 -201 163 -291 l0 -79 -100 -50 c-55
-27 -101 -50 -104 -50 -2 0 -6 93 -9 208 -4 208 -5 213 -52 372 -10 32 -8 30
102 -110z m1319 78 c25 -15 54 -22 87 -22 l50 0 37 -80 c26 -57 40 -108 49
-169 21 -156 85 -289 171 -357 21 -17 41 -41 44 -54 7 -29 -38 -116 -60 -116
-8 0 -106 18 -216 40 -111 22 -203 40 -205 40 -2 0 -3 167 -3 370 0 204 2 370
4 370 3 0 22 -10 42 -22z m-3532 -39 c3 -17 6 -124 6 -236 l0 -205 -27 6 c-16
2 -89 7 -163 11 -74 3 -152 8 -172 11 l-38 6 0 158 0 158 30 12 c22 9 37 9 61
1 18 -6 56 -11 84 -11 66 0 151 42 180 88 25 39 31 40 39 1z m3183 -206 c-4
-16 -12 -112 -19 -215 -14 -211 -7 -199 -94 -177 -35 9 -44 16 -41 28 29 91
144 391 151 391 4 0 6 -12 3 -27z m-347 -17 c0 -5 -60 -140 -65 -144 -1 -2
-19 0 -39 3 -34 7 -36 10 -36 44 0 35 3 38 63 68 61 31 77 37 77 29z m-3602
-161 c-8 -8 -119 11 -119 20 0 6 26 25 58 42 l58 33 3 -46 c2 -26 2 -47 0 -49z
m2 -212 c1 -181 4 -231 20 -292 8 -30 6 -53 -3 -40 -22 29 -227 350 -227 355
0 3 13 22 30 40 16 19 35 52 41 74 l12 40 64 0 63 0 0 -177z m630 132 c14 -1
51 -3 83 -4 l57 -1 0 -157 c0 -168 -7 -211 -43 -264 -85 -127 -298 -93 -342
54 -11 36 -15 98 -15 220 l0 170 118 -8 c64 -4 128 -8 142 -10z m2508 -57 l-3
-62 -70 3 c-81 2 -135 10 -135 20 0 8 180 100 198 100 10 1 12 -15 10 -61z
m-1845 -91 c8 -139 35 -245 84 -339 40 -77 135 -180 196 -213 20 -11 37 -22
37 -25 -1 -3 -20 -14 -43 -25 -23 -11 -218 -110 -433 -220 l-391 -200 -27 31
c-52 63 -182 95 -256 64 -17 -7 -32 -11 -34 -9 -8 9 -226 342 -226 345 0 2 21
-10 48 -26 76 -46 166 -72 277 -77 135 -7 227 9 326 59 96 48 164 113 212 206
56 106 68 166 74 365 l6 177 72 0 72 0 6 -113z m605 67 l42 -5 0 -185 0 -184
-42 0 c-111 0 -203 68 -232 170 -18 65 -31 193 -21 209 6 11 142 8 253 -5z
m625 -34 c56 0 62 -10 53 -75 l-7 -44 -134 -70 c-73 -39 -138 -71 -144 -71 -7
0 -11 45 -11 137 l0 136 98 -6 c53 -4 119 -7 145 -7z m610 -49 c4 -4 6 -152 5
-330 l-3 -321 175 2 174 3 101 232 c55 128 103 233 106 233 3 0 54 -48 112
-107 l107 -108 0 -127 0 -128 66 0 c48 0 65 -3 62 -12 -5 -13 -70 -23 -598
-88 -135 -17 -353 -44 -485 -61 -132 -16 -350 -43 -485 -59 -135 -16 -258 -32
-275 -35 -16 -3 -127 -16 -245 -30 -118 -14 -228 -28 -245 -31 -16 -3 -136
-18 -265 -34 -129 -16 -331 -40 -449 -55 -215 -26 -230 -26 -231 7 0 8 141 82
555 293 171 87 316 162 322 167 8 7 29 4 60 -6 27 -9 92 -22 146 -28 l97 -11
0 -98 0 -99 170 0 170 0 0 99 0 98 99 11 c163 19 268 67 371 171 100 101 158
237 176 410 l7 63 96 -7 c53 -4 99 -10 104 -14z m2087 -161 c0 -78 -1 -80 -22
-75 -13 3 -52 11 -87 19 -34 8 -65 17 -67 19 -2 2 7 29 22 60 l25 57 65 0 64
0 0 -80z m-2687 -11 c-33 -62 -72 -94 -134 -109 -55 -14 -114 -10 -114 8 0 11
244 149 268 151 5 1 -4 -22 -20 -50z m1317 27 l55 -12 3 -87 c1 -48 1 -87 -1
-87 -7 0 -192 190 -196 201 -4 11 46 6 139 -15z m594 -116 c82 -16 151 -32
154 -35 3 -3 -32 -80 -78 -170 l-85 -165 -36 0 c-30 0 -41 6 -62 34 -14 18
-40 39 -56 46 l-31 12 0 159 0 159 23 -5 c12 -3 89 -18 171 -35z m601 -115
c44 -8 101 -20 128 -26 l47 -11 0 -58 c0 -66 7 -62 -132 -76 l-67 -6 -40 82
c-35 73 -42 110 -22 110 3 0 42 -7 86 -15z m-96 -114 c11 -27 21 -54 21 -59 0
-9 -55 -22 -97 -22 -23 0 -23 1 9 65 18 36 35 65 39 65 4 0 16 -22 28 -49z
m755 -66 c22 -55 95 -122 143 -131 l35 -7 -5 -56 c-3 -31 -19 -213 -36 -406
-17 -192 -33 -368 -36 -390 -3 -22 -12 -123 -20 -225 -25 -315 -23 -300 -54
-300 -25 0 -31 9 -71 98 -24 53 -112 248 -196 432 -83 184 -213 471 -289 638
-75 167 -134 307 -130 310 3 4 44 12 91 17 l84 11 0 -43 0 -43 175 0 175 0 0
64 c0 71 0 72 80 75 32 1 36 -2 54 -44z m-667 -130 c36 -80 258 -570 502
-1109 72 -159 131 -293 131 -298 0 -5 -6 -8 -13 -6 -7 2 -301 295 -652 651
-480 486 -640 654 -639 670 6 87 11 101 40 110 16 5 114 11 217 14 168 5 189
8 197 24 11 19 51 27 133 25 l48 -1 36 -80z m-1001 -52 c26 -88 73 -126 159
-131 51 -3 65 0 97 22 l37 25 438 -442 c241 -243 532 -537 647 -654 l209 -212
-13 -30 c-9 -24 -17 -30 -34 -26 -11 2 -50 11 -86 20 -36 8 -119 26 -185 40
-66 13 -205 43 -310 65 -217 46 -360 77 -560 119 -77 17 -216 47 -310 67 -93
20 -231 49 -305 64 -74 16 -200 43 -280 60 -80 17 -217 46 -305 65 -88 19
-225 48 -305 65 -80 17 -210 45 -290 61 -80 17 -203 44 -275 59 -132 28 -288
62 -585 124 -91 20 -239 51 -330 71 -233 50 -375 80 -530 113 -120 25 -135 30
-138 49 -4 24 -1 25 148 44 366 45 681 84 885 110 132 16 350 43 485 59 135
16 259 32 275 35 17 2 127 16 245 30 118 15 226 28 240 30 14 3 120 16 235 30
116 14 228 28 250 31 100 16 404 52 443 53 33 1 44 -3 48 -16z"/>
<path d="M2551 6025 c-29 -8 -70 -23 -90 -32 -47 -22 -124 -99 -149 -150 -23
-45 -52 -149 -52 -187 l0 -26 125 0 c123 0 125 0 125 23 1 40 37 105 69 121
49 26 124 21 160 -10 56 -47 63 -156 15 -214 -26 -30 -87 -50 -153 -50 l-41 0
0 -110 0 -110 75 0 c135 0 192 -52 183 -169 -5 -66 -27 -102 -78 -128 -47 -23
-129 -21 -172 4 -36 21 -78 85 -78 121 0 22 -2 22 -130 22 l-130 0 6 -42 c17
-113 60 -194 139 -266 73 -67 143 -94 261 -100 145 -7 261 35 347 127 77 82
92 125 92 261 0 99 -3 121 -22 155 -28 52 -70 92 -129 120 l-47 23 40 21 c50
25 96 79 112 130 15 53 14 168 -4 227 -32 109 -109 189 -218 227 -72 25 -189
31 -256 12z"/>
<path d="M370 5375 l0 -637 243 4 c222 4 247 6 299 27 80 31 158 104 194 183
26 56 29 74 29 158 0 84 -3 102 -28 153 -17 34 -47 72 -73 94 l-44 37 24 26
c58 61 92 181 80 278 -16 131 -79 228 -182 279 -57 28 -57 28 -299 31 l-243 4
0 -637z m404 385 c59 -22 84 -123 50 -196 -23 -48 -61 -66 -137 -62 l-62 3 -3
133 -3 132 65 0 c36 0 76 -4 90 -10z m35 -513 c45 -23 66 -63 66 -128 -1 -53
-4 -63 -31 -90 -35 -34 -83 -48 -166 -49 l-58 0 0 140 0 140 83 0 c45 0 93 -6
106 -13z"/>
<path d="M1300 5385 c0 -344 0 -628 0 -632 0 -5 55 -9 123 -11 l123 -3 121
278 c66 153 140 333 164 400 24 68 47 123 52 123 4 0 5 -10 2 -22 -12 -54 -25
-331 -25 -546 l0 -233 120 3 120 3 0 630 0 630 -122 3 -123 3 -137 -313 c-75
-172 -149 -350 -165 -395 -28 -83 -49 -111 -38 -50 15 77 30 397 27 570 l-2
187 -120 0 -120 0 0 -625z"/>
<path d="M753 4485 c-178 -39 -313 -178 -358 -367 -22 -93 -22 -954 0 -1047
35 -146 131 -273 249 -327 161 -74 399 -71 563 6 86 40 175 129 213 213 30 66
60 192 60 252 l0 35 -174 0 -175 0 -11 -54 c-21 -103 -76 -154 -178 -163 -103
-9 -172 42 -192 143 -5 28 -8 221 -7 449 l2 400 25 44 c35 61 68 83 135 89
114 9 187 -45 208 -157 l12 -61 177 0 178 0 -4 23 c-3 12 -7 48 -10 79 -7 66
-48 185 -83 241 -62 98 -179 177 -300 202 -84 18 -247 18 -330 0z"/>
<path d="M270 2470 l0 -60 630 -2 630 -3 0 63 0 62 -630 0 -630 0 0 -60z"/>
</g>
</svg>
